<?xml version="1.0" standalone="no"?>
<!DOCTYPE svg PUBLIC "-//W3C//DTD SVG 20010904//EN"
 "http://www.w3.org/TR/2001/REC-SVG-20010904/DTD/svg10.dtd">
<svg version="1.0" xmlns="http://www.w3.org/2000/svg"
 width="2000.000000pt" height="423.000000pt" viewBox="0 0 2000.000000 423.000000"
 preserveAspectRatio="xMidYMid meet">

<g transform="translate(0.000000,423.000000) scale(0.100000,-0.100000)"
fill="#000000" stroke="none">
<path d="M9160 3879 c-442 -154 -812 -287 -822 -296 -24 -22 -23 -66 3 -89 21
-19 62 -19 1649 -19 1587 0 1628 0 1649 19 26 23 27 67 4 89 -22 19 -1623 577
-1655 577 -13 -1 -385 -127 -828 -281z"/>
<path d="M3405 3383 c-176 -37 -261 -70 -379 -146 -173 -113 -309 -271 -421
-488 -256 -499 -270 -1168 -31 -1527 99 -149 250 -252 418 -286 106 -22 281
-20 393 3 489 101 862 609 934 1273 49 444 -65 839 -295 1030 -122 101 -276
148 -474 147 -69 -1 -134 -3 -145 -6z m277 -273 c168 -52 282 -205 335 -450
25 -119 25 -446 0 -575 -91 -461 -315 -781 -614 -879 -72 -24 -195 -35 -278
-25 -198 24 -346 187 -408 451 -18 80 -21 122 -21 303 0 180 3 225 23 315 85
398 275 691 529 819 119 60 313 79 434 41z"/>
<path d="M12946 3375 c-100 -21 -161 -42 -256 -91 -352 -180 -602 -591 -676
-1111 -18 -129 -20 -394 -4 -513 43 -327 188 -572 403 -682 144 -73 421 -77
582 -8 114 49 241 158 300 258 31 53 55 67 55 32 0 -19 -14 -162 -25 -257 l-5
-43 124 0 124 0 6 28 c3 15 51 284 106 597 55 314 103 582 106 598 l6 27 -413
-2 -413 -3 -18 -100 c-9 -55 -17 -108 -17 -117 -1 -17 18 -18 264 -18 246 0
265 -1 265 -17 0 -38 -82 -259 -130 -351 -120 -234 -282 -376 -467 -412 -100
-20 -219 -9 -289 25 -128 63 -227 218 -264 415 -36 191 -32 448 11 661 87 434
330 756 625 825 89 21 259 15 324 -11 141 -57 232 -191 255 -378 l7 -57 155 0
155 0 -7 73 c-24 238 -130 435 -293 543 -31 21 -95 51 -142 68 -77 27 -98 30
-235 32 -101 2 -172 -1 -219 -11z"/>
<path d="M936 3318 c-18 -101 -416 -2350 -416 -2354 0 -2 337 -4 748 -4 l749
0 17 98 c10 53 20 109 23 125 l6 27 -612 0 c-579 0 -612 1 -607 18 3 9 87 481
186 1047 100 567 184 1040 187 1053 l5 22 -140 0 -140 0 -6 -32z"/>
<path d="M5304 3318 c-20 -38 -1133 -2327 -1141 -2346 -4 -10 28 -12 157 -10
l163 3 135 292 136 293 428 0 c235 0 428 -3 428 -7 0 -5 16 -132 35 -283 19
-151 35 -281 35 -287 0 -10 36 -13 145 -13 144 0 145 0 145 23 -1 12 -72 549
-158 1192 l-158 1170 -166 3 -167 2 -17 -32z m200 -910 c38 -304 71 -568 74
-585 l5 -33 -358 0 c-197 0 -355 4 -353 9 31 81 545 1161 553 1161 6 0 37
-218 79 -552z"/>
<path d="M6561 3298 c-17 -85 -411 -2316 -411 -2328 0 -6 47 -10 135 -10 74 0
135 3 135 8 0 13 334 1907 337 1911 2 2 5 2 8 -1 3 -3 173 -434 378 -959 l372
-954 148 -3 c81 -1 147 0 147 4 0 3 95 539 210 1190 116 652 210 1187 210
1190 0 2 -62 3 -137 2 l-137 -3 -168 -954 c-93 -525 -171 -957 -173 -960 -3
-2 -6 -2 -8 0 -3 3 -707 1808 -743 1902 -5 15 -22 17 -149 17 l-144 0 -10 -52z"/>
<path d="M14201 3298 c-6 -29 -70 -386 -143 -793 -125 -701 -132 -747 -132
-875 -1 -160 10 -211 70 -338 78 -163 207 -275 389 -339 76 -26 89 -28 255
-28 205 0 284 16 436 90 206 100 341 252 433 490 58 148 69 202 216 1035 74
421 137 775 140 788 l5 22 -139 0 -139 0 -6 -27 c-3 -16 -66 -374 -141 -798
-74 -423 -147 -808 -161 -855 -105 -341 -329 -511 -654 -497 -162 7 -259 53
-342 162 -61 80 -83 167 -82 315 1 113 14 197 138 895 75 424 138 778 140 788
4 16 -8 17 -134 17 l-139 0 -10 -52z"/>
<path d="M15994 2157 l-210 -1192 134 -3 c74 -1 137 -1 139 2 2 2 43 222 91
490 l86 486 242 0 242 0 164 -490 163 -490 153 0 c143 0 154 1 147 18 -22 57
-345 995 -343 997 2 1 37 12 78 24 269 81 470 274 536 516 24 89 30 284 10
367 -46 199 -192 359 -384 422 -126 41 -185 46 -622 46 l-415 0 -211 -1193z
m1051 928 c190 -40 291 -153 302 -340 14 -216 -82 -384 -270 -474 -126 -61
-201 -71 -523 -71 -151 0 -274 3 -274 6 0 11 151 868 155 882 7 19 517 17 610
-3z"/>
<path d="M18026 3323 c-3 -16 -68 -372 -143 -793 -130 -726 -137 -772 -137
-900 -1 -160 9 -211 71 -340 38 -78 59 -109 122 -171 86 -85 149 -125 266
-166 76 -26 89 -28 255 -28 205 0 284 16 436 90 206 100 341 252 433 490 57
148 68 200 216 1035 74 421 137 775 140 788 l5 22 -139 0 -139 0 -6 -27 c-3
-16 -67 -377 -141 -803 -148 -840 -165 -912 -247 -1050 -78 -132 -189 -223
-328 -270 -81 -28 -249 -38 -332 -21 -227 48 -354 242 -334 511 4 64 256 1539
280 1643 4 16 -8 17 -134 17 l-138 0 -6 -27z"/>
<path d="M8765 3305 l-25 -24 0 -649 0 -649 23 -21 c23 -21 31 -22 253 -22
228 0 231 0 252 23 l22 23 0 648 0 647 -25 24 -24 25 -226 0 -226 0 -24 -25z"/>
<path d="M10733 3320 c-42 -17 -44 -50 -41 -713 l3 -629 24 -19 c21 -17 42
-19 250 -19 189 0 230 3 249 16 l22 15 0 657 c0 361 -4 662 -8 668 -19 29 -55
34 -264 33 -117 0 -223 -4 -235 -9z"/>
<path d="M9686 3046 c-14 -19 -26 -37 -26 -39 0 -2 51 -7 113 -10 133 -6 178
-19 226 -67 l36 -35 -161 -3 -162 -2 -26 -35 c-14 -18 -26 -36 -26 -39 0 -3
88 -6 195 -6 l195 0 -6 -27 c-24 -102 -115 -154 -276 -156 l-88 -2 0 -38 c0
-36 13 -52 197 -253 l197 -214 69 0 c40 0 67 4 65 10 -1 5 -85 102 -185 214
-101 113 -183 210 -183 214 0 5 23 12 51 16 131 18 252 102 280 195 l12 41 62
0 c60 0 63 1 89 38 l26 37 -92 3 -93 4 -27 54 -27 54 93 0 94 0 26 34 c14 19
26 37 26 40 0 3 -146 6 -324 6 l-324 0 -26 -34z"/>
<path d="M8620 1770 c-18 -18 -20 -33 -20 -135 l0 -115 1396 0 1396 0 -4 116
c-3 108 -5 117 -27 135 -23 18 -59 19 -1372 19 -1336 0 -1349 0 -1369 -20z"/>
<path d="M8340 1350 c-19 -19 -20 -33 -20 -254 l0 -235 26 -20 27 -21 1613 0
c1000 0 1622 4 1638 10 41 15 48 62 44 291 -3 187 -5 209 -22 228 l-19 21
-1634 0 c-1620 0 -1633 0 -1653 -20z"/>
</g>
</svg>
