<?xml version="1.0" encoding="UTF-8"?>
<svg version="1.1" viewBox="0 0 4096 866" width="2000" height="423" xmlns="http://www.w3.org/2000/svg">
<path transform="translate(1344,178)" d="m0 0h61l5 10 15 39 18 46 16 41 19 49 19 48 19 49 32 82 10 25 1 1 34-193 34-192 2-5h58l1 2-25 141-26 147-14 78-14 80-8 44-1 1h-62l-11-27-17-44-18-46-16-41-36-92-19-49-22-56-13-33-1-2-22 124-24 136-15 84-8 45-1 1h-58l1-10 37-209 48-271z" fill="#fff"/>
<path transform="translate(1712,584)" d="m0 0h669l6 4 3 5 1 9v76l-1 11-4 6-4 3-3 1h-666l-6-4-4-5-1-3v-92l4-7z" fill="#fff"/>
<path transform="translate(2672,170)" d="m0 0h40l19 3 18 5 16 7 14 9 10 8 13 13 10 14 9 17 7 19 5 20 3 25v11h-66l-1-1-2-18-4-17-5-13-8-14-8-10-10-8-16-8-16-4-10-1h-16l-17 2-19 5-13 6-11 6-12 9-10 9-12 12-13 17-9 15-12 23-10 26-7 24-6 29-3 20-2 27v29l2 26 4 24 6 21 6 15 8 15 8 10 9 9 14 9 14 5 11 2h24l20-4 17-7 14-9 10-8 10-9 10-11 12-17 11-19 9-19 10-27 7-23 1-4-109-1 1-12 6-36 2-4h170l1 4-15 84-14 80-16 90-1 1h-54l6-63 1-2h-3l-2 5-8 12-8 10-16 16-14 10-12 7-15 6-19 5-13 2-12 1h-21l-21-3-17-5-16-7-12-8-10-8-14-14-12-16-11-20-10-26-6-24-4-25-2-23v-47l3-32 5-29 6-25 8-26 8-21 14-29 12-20 10-14 11-14 12-13 8-8 11-9 13-10 20-12 19-9 18-6 23-5z" fill="#fff"/>
<path transform="translate(3318,178)" d="m0 0h163l22 2 23 5 21 8 16 9 11 9 14 14 7 10 8 14 6 15 4 16 2 18v19l-2 19-4 19-7 19-9 17-8 11-9 10-6 7-11 9-14 10-18 10-20 8-20 6h-3l19 56 15 43 36 104 2 6h-67l-14-41-14-43-38-114v-3h-96l-6 32-24 135-6 33-1 1h-60l6-36 29-163 32-181 19-107zm50 55-2 6-23 131-7 39v5h107l22-3 21-6 14-6 14-9 13-11 8-10 8-14 5-13 3-14 1-19-2-19-5-15-6-11-11-12-10-7-16-7-12-3-14-2z" fill="#fff"/>
<path transform="translate(709,170)" d="m0 0h39l20 3 21 6 21 10 14 10 12 11 10 11 12 18 10 19 8 21 7 28 4 27 1 12v53l-3 30-5 28-7 28-9 27-11 26-12 23-12 19-10 14-11 13-11 12-14 13-20 15-15 9-23 11-19 6-24 5-21 2h-23l-24-3-19-5-15-6-15-8-13-10-10-9-7-8-11-15-10-18-9-21-7-24-5-28-2-19-1-22v-13l1-23 3-28 5-28 7-27 10-30 11-25 12-23 12-19 12-16 9-11 22-22 17-13 17-11 15-8 15-6 16-5 19-4zm6 56-22 3-17 5-17 8-16 11-13 11-13 13-11 14-10 15-10 18-9 19-9 25-7 24-6 31-2 16-1 15v32l2 23 4 24 6 21 8 18 7 12 8 10 6 7 10 8 14 8 15 5 14 2h18l22-3 16-5 16-7 14-9 10-8 12-11 7-7 11-14 9-13 9-16 8-16 10-25 7-23 6-27 4-28 1-13v-38l-3-29-4-21-8-24-8-16-8-12-11-12-11-8-16-8-16-4-9-1z" fill="#fff"/>
<path transform="translate(1088,178)" d="m0 0h71l2 9 25 187 39 290v7h-62l-1-1-12-93-3-23v-5h-172l-3 9-13 27-12 26-14 30-13 28-1 2h-70l2-6 23-47 12-25 20-41 14-29 20-41 16-33 19-39 16-33 19-39 14-29 22-45 12-25 22-45zm22 84-8 16-18 38-15 32-13 28-16 34-13 28-16 34-12 26v1h142l-1-14-27-216-1-7z" fill="#fff"/>
<path transform="translate(2909,178)" d="m0 0h59l1 3-18 102-38 216-2 17v27l3 19 4 12 7 14 8 10 8 8 11 7 13 6 16 4 7 1h29l18-3 21-7 15-8 12-9 12-11 11-14 10-17 7-16 8-25 6-29 37-210 16-91 2-6h59l1 2-27 153-28 158-7 33-9 29-9 21-8 16-10 16-13 16-14 14-16 12-17 10-15 7-24 8-26 5-21 2h-24l-17-2-18-4-19-7-19-10-13-10-12-11-11-14-8-13-9-19-6-21-3-21v-28l3-25 27-152 29-163z" fill="#fff"/>
<path transform="translate(3692,178)" d="m0 0h59l-2 16-26 148-19 107-9 53-2 19v18l3 21 5 16 8 14 9 11 11 9 16 8 13 4 13 2h28l18-3 16-5 17-8 14-10 10-9 7-7 12-17 8-16 8-20 6-22 9-48 26-148 23-130 1-3h60l-1 10-18 101-14 80-22 124-6 28-8 27-10 25-11 21-8 12-10 13-10 11-11 9-13 10-16 9-17 8-18 6-23 5-15 2-13 1h-23l-24-3-21-6-18-8-15-9-11-9-14-14-10-14-9-16-7-18-5-22-2-21v-12l2-24 15-86 29-163 13-73z" fill="#fff"/>
<path transform="translate(2041,12)" d="m0 0h9l93 32 92 32 48 17 44 15 40 14 16 6 5 4 2 4v10l-4 6-4 3-3 1h-667l-6-4-4-5-1-8 4-8 8-5 64-22 43-15 89-31 98-34z" fill="#fff"/>
<path transform="translate(192,178)" d="m0 0h59l1 2-39 221-28 159-10 56 249 1-2 14-7 38-1 2h-310l2-13 35-198 27-152 22-124z" fill="#fff"/>
<path transform="translate(1770,498)" d="m0 0h553l6 4 4 6v48h-573l-1-1v-44l3-7 5-5z" fill="#fff"/>
<path transform="translate(1800,183)" d="m0 0h91l7 3 5 6 1 2v265l-3 6-5 4-2 1-68 1h-22l-8-2-5-5-3-7v-261l4-8 5-4z" fill="#fff"/>
<path transform="translate(2200,183)" d="m0 0h91l8 3 4 5 1 3v266l-4 6-3 3-3 1-67 1h-22l-9-2-6-7-1-2-1-29v-196l1-42 5-7z" fill="#fff"/>
<path transform="translate(1988,234)" d="m0 0h137l-2 5-11 15-35 1 6 10 2 8h40l-2 4-10 15-2 1h-25l-2 9-6 12-7 8-11 8-13 6-14 4-16 2 6 7 9 10 7 8 9 10 7 8 9 10 7 8 9 10 7 8 6 8-1 4h-31l-12-13-9-10-15-16-7-8-15-16-9-10-12-13-1-2v-18l2-1h27l17-3 16-8 8-9 5-13h-82l2-5 11-15 64-1-5-6-10-6-12-4-5-1-45-1 2-5 9-12z" fill="#fff"/>
</svg>
